# xmcd
#
# Track frame offsets: 
#        150
#        17589
#        34048
#        49250
#        62732
#        72371
#        86197
#        103182
#        116973
#        124199
#        144508
#        159379
#        173242
#        187848
#        196258
#        204882
#
# Disc length: 2989 seconds
#
# Revision: 1
# Processed by: cddbd v1.5.1PL2 Copyright (c) Steve Scherf et al.
# Submitted via: ExactAudioCopy v0.95b2
#
DISCID=e10bab10
DTITLE=Johnny Cash - Reads the Complete New Testament Disc 15
DYEAR=1990
DGENRE=Speech
TTITLE0=1 Peter 01
TTITLE1=1 Peter 02
TTITLE2=1 Peter 03
TTITLE3=1 Peter 04
TTITLE4=1 Peter 05
TTITLE5=2 Peter 01
TTITLE6=2 Peter 02
TTITLE7=2 Peter 03
TTITLE8=1 John 01
TTITLE9=1 John 02
TTITLE10=1 John 03
TTITLE11=1 John 04
TTITLE12=1 John 05
TTITLE13=2 John 01
TTITLE14=3 John 01
TTITLE15=Jude 01
EXTD=
EXTT0=
EXTT1=
EXTT2=
EXTT3=
EXTT4=
EXTT5=
EXTT6=
EXTT7=
EXTT8=
EXTT9=
EXTT10=
EXTT11=
EXTT12=
EXTT13=
EXTT14=
EXTT15=
PLAYORDER=
